<svg width="13" height="13" viewBox="0 0 13 13" fill="none" xmlns="http://www.w3.org/2000/svg">
<path fill-rule="evenodd" clip-rule="evenodd" d="M11.1945 5.4028C11.1945 3.63503 9.76145 2.20198 7.99368 2.20198C6.22594 2.20198 4.79285 3.63503 4.79285 5.4028C4.79285 7.17054 6.22594 8.60363 7.99368 8.60363C9.76145 8.60363 11.1945 7.17054 11.1945 5.4028ZM7.99368 0.601563C10.6453 0.601563 12.7949 2.75115 12.7949 5.4028C12.7949 8.05445 10.6453 10.204 7.99368 10.204C6.95677 10.204 5.9966 9.87532 5.21176 9.31638L2.15785 12.3703C1.84537 12.6828 1.33868 12.6828 1.0262 12.3703C0.713718 12.0578 0.713718 11.5511 1.0262 11.2386L4.08011 8.18472C3.52116 7.39988 3.19244 6.43971 3.19244 5.4028C3.19244 2.75115 5.34203 0.601563 7.99368 0.601563Z" fill="#373867"/>
</svg>
